<?xml version="1.0" standalone="no"?>
<!DOCTYPE svg PUBLIC "-//W3C//DTD SVG 20010904//EN" "http://www.w3.org/TR/2001/REC-SVG-20010904/DTD/svg10.dtd">
<svg version="1.0" xmlns="http://www.w3.org/2000/svg" width="300" height="300" viewBox="0 0 300 300" preserveAspectRatio="xMidYMid meet">
  <g transform="translate(0,300) scale(0.1,-0.1)" fill="#c30082" stroke="black" stroke-width="192" stroke-alignment="outside">
    <path d="M1540 1838 l0 -862 41 39 c22 22 76 79 119 126 l79 86 -104 624 c-58 343 -105 625 -105 626 0 2 132 4 293 5 l292 3 -160 54 c-88 30 -225 78 -304 108 -80 29 -146 53 -148 53 -2 0 -3 -388 -3 -862z" />
    <path d="M1342 1933 c-62 -373 -112 -687 -112 -698 1 -11 51 -72 115 -140 l115 -120 0 818 c0 449 -1 817 -3 817 -1 0 -53 -305 -115 -677z" />
    <path d="M120 2470 c0 -6 46 -59 103 -118 57 -59 222 -233 367 -387 293 -312 500 -525 510 -525 3 0 28 23 55 50 l49 50 -24 24 c-279 265 -1060 932 -1060 906z" />
    <path d="M2728 2353 c-245 -203 -635 -540 -733 -633 -49 -47 -114 -106 -142 -131 l-53 -45 54 -53 54 -53 154 158 c203 209 811 852 821 870 4 8 6 14 3 14 -2 0 -73 -57 -158 -127z" />
    <path d="M214 2210 c56 -171 273 -867 369 -1182 11 -38 23 -68 26 -68 3 0 100 94 215 209 l209 209 -309 319 c-460 474 -515 529 -510 513z" />
    <path d="M2470 1893 c-173 -179 -356 -369 -407 -422 l-92 -98 213 -212 212 -212 73 238 c41 131 129 415 198 632 68 216 123 395 121 396 -2 2 -145 -143 -318 -322z" />
    <path d="M1842 1350 c207 -645 344 -1055 349 -1046 10 17 169 528 169 543 0 11 -70 81 -409 408 -63 60 -112 103 -109 95z" />
    <path d="M896 1104 c-141 -135 -256 -249 -256 -252 0 -11 174 -562 176 -559 8 7 345 1050 341 1053 -2 3 -120 -106 -261 -242z" />
    <path d="M1196 1149 c-48 -131 -275 -813 -272 -816 2 -2 123 121 269 273 172 178 264 281 259 289 -4 7 -62 70 -129 141 -82 86 -124 123 -127 113z" />
    <path d="M1668 1022 l-126 -136 139 -146 c326 -341 388 -404 393 -399 7 6 -266 819 -274 818 -3 0 -62 -61 -132 -137z" />
  </g>
  <g transform="translate(0,300) scale(0.1,-0.1)" fill="#c30082">
    <path d="M1540 1838 l0 -862 41 39 c22 22 76 79 119 126 l79 86 -104 624 c-58 343 -105 625 -105 626 0 2 132 4 293 5 l292 3 -160 54 c-88 30 -225 78 -304 108 -80 29 -146 53 -148 53 -2 0 -3 -388 -3 -862z" />
    <path d="M1342 1933 c-62 -373 -112 -687 -112 -698 1 -11 51 -72 115 -140 l115 -120 0 818 c0 449 -1 817 -3 817 -1 0 -53 -305 -115 -677z" />
    <path d="M120 2470 c0 -6 46 -59 103 -118 57 -59 222 -233 367 -387 293 -312 500 -525 510 -525 3 0 28 23 55 50 l49 50 -24 24 c-279 265 -1060 932 -1060 906z" />
    <path d="M2728 2353 c-245 -203 -635 -540 -733 -633 -49 -47 -114 -106 -142 -131 l-53 -45 54 -53 54 -53 154 158 c203 209 811 852 821 870 4 8 6 14 3 14 -2 0 -73 -57 -158 -127z" />
    <path d="M214 2210 c56 -171 273 -867 369 -1182 11 -38 23 -68 26 -68 3 0 100 94 215 209 l209 209 -309 319 c-460 474 -515 529 -510 513z" />
    <path d="M2470 1893 c-173 -179 -356 -369 -407 -422 l-92 -98 213 -212 212 -212 73 238 c41 131 129 415 198 632 68 216 123 395 121 396 -2 2 -145 -143 -318 -322z" />
    <path d="M1842 1350 c207 -645 344 -1055 349 -1046 10 17 169 528 169 543 0 11 -70 81 -409 408 -63 60 -112 103 -109 95z" />
    <path d="M896 1104 c-141 -135 -256 -249 -256 -252 0 -11 174 -562 176 -559 8 7 345 1050 341 1053 -2 3 -120 -106 -261 -242z" />
    <path d="M1196 1149 c-48 -131 -275 -813 -272 -816 2 -2 123 121 269 273 172 178 264 281 259 289 -4 7 -62 70 -129 141 -82 86 -124 123 -127 113z" />
    <path d="M1668 1022 l-126 -136 139 -146 c326 -341 388 -404 393 -399 7 6 -266 819 -274 818 -3 0 -62 -61 -132 -137z" />
  </g>
</svg>
